<?xml version="1.0" encoding="UTF-8"?><!DOCTYPE svg PUBLIC "-//W3C//DTD SVG 1.1//EN" "http://www.w3.org/Graphics/SVG/1.1/DTD/svg11.dtd"><svg xmlns="http://www.w3.org/2000/svg" xmlns:xlink="http://www.w3.org/1999/xlink"><defs>
<clipPath id="clip0_201:1">
<rect width="18" height="18" fill="white" transform="translate(0 18) rotate(-90)"/>
</clipPath>
</defs><symbol id="icon-arrow-up" viewBox="0 0 18 18">
<g clip-path="url(#clip0_201:1)">
<path d="M8.29764 3.99939L0.287559 12.0096C0.102145 12.1949 -8.06437e-08 12.4422 -6.91167e-08 12.7059C-5.75898e-08 12.9696 0.102145 13.2169 0.287559 13.4022L0.87731 13.9921C1.2616 14.3759 1.88618 14.3759 2.26988 13.9921L8.99627 7.2657L15.7301 13.9996C15.9155 14.1848 16.1627 14.2871 16.4263 14.2871C16.6901 14.2871 16.9373 14.1848 17.1228 13.9995L17.7124 13.4097C17.8979 13.2242 18 12.9771 18 12.7134C18 12.4497 17.8979 12.2023 17.7124 12.0171L9.69504 3.99939C9.50904 3.81368 9.26071 3.71168 8.99671 3.71227C8.73169 3.71168 8.48349 3.81368 8.29764 3.99939Z" fill="white"/>
</g>

</symbol><symbol id="icon-checkbox" viewBox="0 0 10 10">
<path d="M4.5266 8.388C4.07322 8.84139 3.33756 8.84139 2.8844 8.388L0.340036 5.84358C-0.113345 5.3904 -0.113345 4.65474 0.340036 4.20156C0.793199 3.74817 1.52885 3.74817 1.98223 4.20156L3.49817 5.71732C3.61261 5.83154 3.79839 5.83154 3.91304 5.71732L8.01777 1.6125C8.47093 1.15911 9.20658 1.15911 9.65996 1.6125C9.87768 1.83023 10 2.12563 10 2.43351C10 2.74139 9.87768 3.03679 9.65996 3.25452L4.5266 8.388Z" fill="white"/>
</symbol><symbol id="icon-like" viewBox="0 0 46 46">
<path d="M33.7812 2.69531C31.2851 2.69531 28.9966 3.4863 26.9794 5.04634C25.0456 6.54197 23.758 8.44693 23 9.83214C22.242 8.44684 20.9544 6.54197 19.0206 5.04634C17.0034 3.4863 14.7149 2.69531 12.2188 2.69531C5.25298 2.69531 0 8.39293 0 15.9485C0 24.1112 6.55347 29.696 16.4746 38.1505C18.1593 39.5863 20.0689 41.2138 22.0538 42.9494C22.3154 43.1785 22.6514 43.3047 23 43.3047C23.3486 43.3047 23.6846 43.1785 23.9462 42.9495C25.9312 41.2136 27.8408 39.5862 29.5265 38.1496C39.4465 29.696 46 24.1112 46 15.9485C46 8.39293 40.747 2.69531 33.7812 2.69531Z" fill="currentColor"/>
</symbol><symbol id="logo" viewBox="0 0 78 78">
<path d="M63.0559 28.8815L54.2119 28.8947L27.8012 53.7922H10.0354V36.4593L34.2348 13.8486L17.993 13.8992L0 30.6625V64.1511H34.0283L63.0418 36.5687L63.0559 28.8815Z" fill="white"/>
<path d="M43.9721 13.8486L14.9586 41.4318L14.9453 49.1182L23.7884 49.1049L50.1991 24.2075H67.9649V41.5404L43.7656 64.1511L60.0074 64.1013L78.0004 47.338V13.8486H43.9721Z" fill="white"/>
</symbol></svg>